{
	"asset":{
		"generator":"Khronos glTF Blender I/O v3.6.27",
		"version":"2.0"
	},
	"scene":0,
	"scenes":[
		{
			"name":"Scene",
			"nodes":[
				0
			]
		}
	],
	"nodes":[
		{
			"mesh":0,
			"name":"Cube",
			"translation":[
				0,
				0.6266679763793945,
				0
			]
		}
	],
	"materials":[
		{
			"doubleSided":true,
			"name":"Material.001",
			"pbrMetallicRoughness":{
				"baseColorTexture":{
					"index":0
				},
				"metallicFactor":0,
				"roughnessFactor":0.5
			}
		}
	],
	"meshes":[
		{
			"name":"Cube.001",
			"primitives":[
				{
					"attributes":{
						"POSITION":0,
						"NORMAL":1,
						"TEXCOORD_0":2
					},
					"indices":3,
					"material":0
				}
			]
		}
	],
	"textures":[
		{
			"sampler":0,
			"source":0
		}
	],
	"images":[
		{
			"mimeType":"image/png",
			"name":"frab",
			"uri":"frab.png"
		}
	],
	"accessors":[
		{
			"bufferView":0,
			"componentType":5126,
			"count":609,
			"max":[
				0.7645073533058167,
				0.5090402364730835,
				0.8184402585029602
			],
			"min":[
				-0.8363513946533203,
				-0.2774040102958679,
				-0.9557950496673584
			],
			"type":"VEC3"
		},
		{
			"bufferView":1,
			"componentType":5126,
			"count":609,
			"type":"VEC3"
		},
		{
			"bufferView":2,
			"componentType":5126,
			"count":609,
			"type":"VEC2"
		},
		{
			"bufferView":3,
			"componentType":5123,
			"count":3456,
			"type":"SCALAR"
		}
	],
	"bufferViews":[
		{
			"buffer":0,
			"byteLength":7308,
			"byteOffset":0,
			"target":34962
		},
		{
			"buffer":0,
			"byteLength":7308,
			"byteOffset":7308,
			"target":34962
		},
		{
			"buffer":0,
			"byteLength":4872,
			"byteOffset":14616,
			"target":34962
		},
		{
			"buffer":0,
			"byteLength":6912,
			"byteOffset":19488,
			"target":34963
		}
	],
	"samplers":[
		{
			"magFilter":9729,
			"minFilter":9987
		}
	],
	"buffers":[
		{
			"byteLength":26400,
			"uri":"mat.bin"
		}
	]
}
