{
	"asset":{
		"generator":"Khronos glTF Blender I/O v3.6.27",
		"version":"2.0"
	},
	"scene":0,
	"scenes":[
		{
			"name":"Scene",
			"nodes":[
				0
			]
		}
	],
	"nodes":[
		{
			"mesh":0,
			"name":"Plane.001",
			"scale":[
				2.582601547241211,
				2.582601547241211,
				2.582601547241211
			],
			"translation":[
				0.25434577465057373,
				3.6349568367004395,
				25.66836166381836
			]
		}
	],
	"meshes":[
		{
			"name":"Plane.001",
			"primitives":[
				{
					"attributes":{
						"POSITION":0,
						"NORMAL":1,
						"TEXCOORD_0":2
					},
					"indices":3
				}
			]
		}
	],
	"accessors":[
		{
			"bufferView":0,
			"componentType":5126,
			"count":36614,
			"max":[
				1.0481436252593994,
				-0.2481602281332016,
				1.0905663967132568
			],
			"min":[
				-0.8811540007591248,
				-1.3000986576080322,
				-0.9132908582687378
			],
			"type":"VEC3"
		},
		{
			"bufferView":1,
			"componentType":5126,
			"count":36614,
			"type":"VEC3"
		},
		{
			"bufferView":2,
			"componentType":5126,
			"count":36614,
			"type":"VEC2"
		},
		{
			"bufferView":3,
			"componentType":5123,
			"count":219648,
			"type":"SCALAR"
		}
	],
	"bufferViews":[
		{
			"buffer":0,
			"byteLength":439368,
			"byteOffset":0,
			"target":34962
		},
		{
			"buffer":0,
			"byteLength":439368,
			"byteOffset":439368,
			"target":34962
		},
		{
			"buffer":0,
			"byteLength":292912,
			"byteOffset":878736,
			"target":34962
		},
		{
			"buffer":0,
			"byteLength":439296,
			"byteOffset":1171648,
			"target":34963
		}
	],
	"buffers":[
		{
			"byteLength":1610944,
			"uri":"model.bin"
		}
	]
}
