{
	"asset":{
		"generator":"Khronos glTF Blender I/O v3.6.27",
		"version":"2.0"
	},
	"scene":0,
	"scenes":[
		{
			"name":"Scene",
			"nodes":[
				0
			]
		}
	],
	"nodes":[
		{
			"mesh":0,
			"name":"Plane"
		}
	],
	"meshes":[
		{
			"name":"Plane",
			"primitives":[
				{
					"attributes":{
						"POSITION":0,
						"NORMAL":1
					},
					"indices":2
				}
			]
		}
	],
	"accessors":[
		{
			"bufferView":0,
			"componentType":5126,
			"count":61646,
			"max":[
				1.4105991125106812,
				3.0674617290496826,
				1.9678694009780884
			],
			"min":[
				-1.232761025428772,
				0.42362725734710693,
				-1.2169746160507202
			],
			"type":"VEC3"
		},
		{
			"bufferView":1,
			"componentType":5126,
			"count":61646,
			"type":"VEC3"
		},
		{
			"bufferView":2,
			"componentType":5123,
			"count":369864,
			"type":"SCALAR"
		}
	],
	"bufferViews":[
		{
			"buffer":0,
			"byteLength":739752,
			"byteOffset":0,
			"target":34962
		},
		{
			"buffer":0,
			"byteLength":739752,
			"byteOffset":739752,
			"target":34962
		},
		{
			"buffer":0,
			"byteLength":739728,
			"byteOffset":1479504,
			"target":34963
		}
	],
	"buffers":[
		{
			"byteLength":2219232,
			"uri":"4d.bin"
		}
	]
}
