{
	"asset":{
		"generator":"Khronos glTF Blender I/O v3.6.27",
		"version":"2.0"
	},
	"scene":0,
	"scenes":[
		{
			"name":"Scene",
			"nodes":[
				0
			]
		}
	],
	"nodes":[
		{
			"mesh":0,
			"name":"Plane",
			"rotation":[
				0.7071068286895752,
				0,
				0,
				0.7071068286895752
			],
			"scale":[
				3.3111894130706787,
				3.3111894130706787,
				3.3111894130706787
			],
			"translation":[
				4.802728176116943,
				2.7897725105285645,
				3.0522725582122803
			]
		}
	],
	"meshes":[
		{
			"name":"Plane.003",
			"primitives":[
				{
					"attributes":{
						"POSITION":0,
						"NORMAL":1,
						"TEXCOORD_0":2
					},
					"indices":3
				}
			]
		}
	],
	"accessors":[
		{
			"bufferView":0,
			"componentType":5126,
			"count":8170,
			"max":[
				0.1982394903898239,
				0.3233211040496826,
				0.5136294364929199
			],
			"min":[
				-0.48788759112358093,
				-0.06991487741470337,
				-0.6037229895591736
			],
			"type":"VEC3"
		},
		{
			"bufferView":1,
			"componentType":5126,
			"count":8170,
			"type":"VEC3"
		},
		{
			"bufferView":2,
			"componentType":5126,
			"count":8170,
			"type":"VEC2"
		},
		{
			"bufferView":3,
			"componentType":5123,
			"count":47034,
			"type":"SCALAR"
		}
	],
	"bufferViews":[
		{
			"buffer":0,
			"byteLength":98040,
			"byteOffset":0,
			"target":34962
		},
		{
			"buffer":0,
			"byteLength":98040,
			"byteOffset":98040,
			"target":34962
		},
		{
			"buffer":0,
			"byteLength":65360,
			"byteOffset":196080,
			"target":34962
		},
		{
			"buffer":0,
			"byteLength":94068,
			"byteOffset":261440,
			"target":34963
		}
	],
	"buffers":[
		{
			"byteLength":355508,
			"uri":"Shirt.bin"
		}
	]
}
