{
	"asset":{
		"generator":"Khronos glTF Blender I/O v3.6.27",
		"version":"2.0"
	},
	"scene":0,
	"scenes":[
		{
			"name":"Scene",
			"nodes":[
				0
			]
		}
	],
	"nodes":[
		{
			"mesh":0,
			"name":"Plane"
		}
	],
	"meshes":[
		{
			"name":"Plane",
			"primitives":[
				{
					"attributes":{
						"POSITION":0,
						"NORMAL":1,
						"TEXCOORD_0":2
					},
					"indices":3
				}
			]
		}
	],
	"accessors":[
		{
			"bufferView":0,
			"componentType":5126,
			"count":357,
			"max":[
				1.2921818494796753,
				5.959527492523193,
				1.2921818494796753
			],
			"min":[
				-1.2921818494796753,
				0,
				-2.623119354248047
			],
			"type":"VEC3"
		},
		{
			"bufferView":1,
			"componentType":5126,
			"count":357,
			"type":"VEC3"
		},
		{
			"bufferView":2,
			"componentType":5126,
			"count":357,
			"type":"VEC2"
		},
		{
			"bufferView":3,
			"componentType":5123,
			"count":930,
			"type":"SCALAR"
		}
	],
	"bufferViews":[
		{
			"buffer":0,
			"byteLength":4284,
			"byteOffset":0,
			"target":34962
		},
		{
			"buffer":0,
			"byteLength":4284,
			"byteOffset":4284,
			"target":34962
		},
		{
			"buffer":0,
			"byteLength":2856,
			"byteOffset":8568,
			"target":34962
		},
		{
			"buffer":0,
			"byteLength":1860,
			"byteOffset":11424,
			"target":34963
		}
	],
	"buffers":[
		{
			"byteLength":13284,
			"uri":"3d.bin"
		}
	]
}
