{
	"asset":{
		"generator":"Khronos glTF Blender I/O v3.6.27",
		"version":"2.0"
	},
	"scene":0,
	"scenes":[
		{
			"name":"Scene",
			"nodes":[
				0
			]
		}
	],
	"nodes":[
		{
			"mesh":0,
			"name":"RetopoFlow"
		}
	],
	"materials":[
		{
			"doubleSided":true,
			"name":"Material.002",
			"pbrMetallicRoughness":{
				"baseColorTexture":{
					"index":0
				},
				"metallicFactor":0,
				"roughnessFactor":0.5
			}
		}
	],
	"meshes":[
		{
			"name":"RetopoFlow",
			"primitives":[
				{
					"attributes":{
						"POSITION":0,
						"NORMAL":1,
						"TEXCOORD_0":2
					},
					"indices":3,
					"material":0
				}
			]
		}
	],
	"textures":[
		{
			"sampler":0,
			"source":0
		}
	],
	"images":[
		{
			"mimeType":"image/png",
			"name":"3333",
			"uri":"3333.png"
		}
	],
	"accessors":[
		{
			"bufferView":0,
			"componentType":5126,
			"count":20448,
			"max":[
				0.6649864315986633,
				6.277257442474365,
				0.5593120455741882
			],
			"min":[
				-0.6546012163162231,
				4.702910423278809,
				-0.5302122831344604
			],
			"type":"VEC3"
		},
		{
			"bufferView":1,
			"componentType":5126,
			"count":20448,
			"type":"VEC3"
		},
		{
			"bufferView":2,
			"componentType":5126,
			"count":20448,
			"type":"VEC2"
		},
		{
			"bufferView":3,
			"componentType":5123,
			"count":30672,
			"type":"SCALAR"
		}
	],
	"bufferViews":[
		{
			"buffer":0,
			"byteLength":245376,
			"byteOffset":0,
			"target":34962
		},
		{
			"buffer":0,
			"byteLength":245376,
			"byteOffset":245376,
			"target":34962
		},
		{
			"buffer":0,
			"byteLength":163584,
			"byteOffset":490752,
			"target":34962
		},
		{
			"buffer":0,
			"byteLength":61344,
			"byteOffset":654336,
			"target":34963
		}
	],
	"samplers":[
		{
			"magFilter":9729,
			"minFilter":9987
		}
	],
	"buffers":[
		{
			"byteLength":715680,
			"uri":"Shirt.bin"
		}
	]
}
