{
	"asset":{
		"generator":"Khronos glTF Blender I/O v3.6.27",
		"version":"2.0"
	},
	"scene":0,
	"scenes":[
		{
			"name":"Scene",
			"nodes":[
				0
			]
		}
	],
	"nodes":[
		{
			"mesh":0,
			"name":"Shirt"
		}
	],
	"materials":[
		{
			"doubleSided":true,
			"name":"Material",
			"pbrMetallicRoughness":{
				"baseColorTexture":{
					"index":0
				},
				"metallicFactor":0,
				"roughnessFactor":0.5
			}
		}
	],
	"meshes":[
		{
			"name":"RetopoFlow",
			"primitives":[
				{
					"attributes":{
						"POSITION":0,
						"NORMAL":1,
						"TEXCOORD_0":2
					},
					"indices":3,
					"material":0
				}
			]
		}
	],
	"textures":[
		{
			"sampler":0,
			"source":0
		}
	],
	"images":[
		{
			"mimeType":"image/jpeg",
			"name":"layout image",
			"uri":"layout%20image.jpg"
		}
	],
	"accessors":[
		{
			"bufferView":0,
			"componentType":5126,
			"count":136261,
			"max":[
				1.2265007495880127,
				6.33633279800415,
				0.5493637323379517
			],
			"min":[
				-1.2269208431243896,
				4.084836959838867,
				-0.48926085233688354
			],
			"type":"VEC3"
		},
		{
			"bufferView":1,
			"componentType":5126,
			"count":136261,
			"type":"VEC3"
		},
		{
			"bufferView":2,
			"componentType":5126,
			"count":136261,
			"type":"VEC2"
		},
		{
			"bufferView":3,
			"componentType":5125,
			"count":805344,
			"type":"SCALAR"
		}
	],
	"bufferViews":[
		{
			"buffer":0,
			"byteLength":1635132,
			"byteOffset":0,
			"target":34962
		},
		{
			"buffer":0,
			"byteLength":1635132,
			"byteOffset":1635132,
			"target":34962
		},
		{
			"buffer":0,
			"byteLength":1090088,
			"byteOffset":3270264,
			"target":34962
		},
		{
			"buffer":0,
			"byteLength":3221376,
			"byteOffset":4360352,
			"target":34963
		}
	],
	"samplers":[
		{
			"magFilter":9729,
			"minFilter":9987
		}
	],
	"buffers":[
		{
			"byteLength":7581728,
			"uri":"t-shirt2.bin"
		}
	]
}
