{
	"asset":{
		"generator":"Khronos glTF Blender I/O v3.6.27",
		"version":"2.0"
	},
	"scene":0,
	"scenes":[
		{
			"name":"Scene",
			"nodes":[
				0
			]
		}
	],
	"nodes":[
		{
			"mesh":0,
			"name":"Cube",
			"translation":[
				0,
				1.0461571216583252,
				0
			]
		}
	],
	"materials":[
		{
			"doubleSided":true,
			"name":"Material",
			"pbrMetallicRoughness":{
				"baseColorFactor":[
					0.800000011920929,
					0.800000011920929,
					0.800000011920929,
					1
				],
				"metallicFactor":0,
				"roughnessFactor":0.5
			}
		}
	],
	"meshes":[
		{
			"name":"Cube",
			"primitives":[
				{
					"attributes":{
						"POSITION":0,
						"NORMAL":1,
						"TEXCOORD_0":2
					},
					"indices":3,
					"material":0
				}
			]
		}
	],
	"accessors":[
		{
			"bufferView":0,
			"componentType":5126,
			"count":91393,
			"max":[
				1.064940094947815,
				1.0083500146865845,
				1.00096595287323
			],
			"min":[
				-1.025403380393982,
				-0.9937708377838135,
				-1.0459389686584473
			],
			"type":"VEC3"
		},
		{
			"bufferView":1,
			"componentType":5126,
			"count":91393,
			"type":"VEC3"
		},
		{
			"bufferView":2,
			"componentType":5126,
			"count":91393,
			"type":"VEC2"
		},
		{
			"bufferView":3,
			"componentType":5125,
			"count":540672,
			"type":"SCALAR"
		}
	],
	"bufferViews":[
		{
			"buffer":0,
			"byteLength":1096716,
			"byteOffset":0,
			"target":34962
		},
		{
			"buffer":0,
			"byteLength":1096716,
			"byteOffset":1096716,
			"target":34962
		},
		{
			"buffer":0,
			"byteLength":731144,
			"byteOffset":2193432,
			"target":34962
		},
		{
			"buffer":0,
			"byteLength":2162688,
			"byteOffset":2924576,
			"target":34963
		}
	],
	"buffers":[
		{
			"byteLength":5087264,
			"uri":"box.bin"
		}
	]
}
